<?xml version="1.0" encoding="UTF-8" standalone="no"?>
<svg
   xmlns:dc="http://purl.org/dc/elements/1.1/"
   xmlns:cc="http://creativecommons.org/ns#"
   xmlns:rdf="http://www.w3.org/1999/02/22-rdf-syntax-ns#"
   xmlns:svg="http://www.w3.org/2000/svg"
   xmlns="http://www.w3.org/2000/svg"
   xmlns:sodipodi="http://sodipodi.sourceforge.net/DTD/sodipodi-0.dtd"
   xmlns:inkscape="http://www.inkscape.org/namespaces/inkscape"
   sodipodi:docname="logo21.svg"
   width="41.802559mm"
   height="40.645115mm"
   viewBox="0 0 41.802559 40.645115"
   version="1.1"
   id="svg8"
   inkscape:version="1.0.1 (3bc2e813f5, 2020-09-07)"
   inkscape:export-filename="/home/asreeve/current/misc/pelican_web/asreeve.github.io/content/images/logo2.png"
   inkscape:export-xdpi="100"
   inkscape:export-ydpi="100">
  <defs
     id="defs2">
    <inkscape:path-effect
       effect="curvestitching"
       id="path-effect985"
       is_visible="true"
       lpeversion="1"
       count="5"
       startpoint_edge_variation="0;1"
       startpoint_spacing_variation="0;1"
       endpoint_edge_variation="0;1"
       endpoint_spacing_variation="0;1"
       strokepath="m 71.473125,56.127451 h 2.562302"
       prop_scale="1"
       scale_y_rel="false" />
    <inkscape:path-effect
       effect="curvestitching"
       id="path-effect983"
       is_visible="true"
       lpeversion="1"
       count="7"
       startpoint_edge_variation="0;1"
       startpoint_spacing_variation="0;1"
       endpoint_edge_variation="0;1"
       endpoint_spacing_variation="0;1"
       strokepath="m 71.473125,56.127451 h 2.562302"
       prop_scale="1"
       scale_y_rel="false" />
    <inkscape:path-effect
       effect="lattice2"
       gridpoint0="71.373877,53.611538"
       gridpoint1="74.134675,53.611538"
       gridpoint2="71.473125,58.540617"
       gridpoint3="74.035427,58.540617"
       gridpoint4="72.096323,53.532044"
       gridpoint5="73.412229,53.532044"
       gridpoint6="72.1137,58.540617"
       gridpoint7="73.394852,58.540617"
       gridpoint8x9="72.697181,54.080328"
       gridpoint10x11="72.754276,58.540617"
       gridpoint12="71.657926,54.839849"
       gridpoint13="73.961014,54.793092"
       gridpoint14="70.781895,57.420673"
       gridpoint15="74.726657,57.420673"
       gridpoint16="72.1137,54.779487"
       gridpoint17="73.394852,54.779487"
       gridpoint18="72.1137,57.286907"
       gridpoint19="73.394852,57.286907"
       gridpoint20x21="72.754276,54.779487"
       gridpoint22x23="72.754276,57.286907"
       gridpoint24x26="71.473125,56.033197"
       gridpoint25x27="74.035427,56.033197"
       gridpoint28x30="72.1137,56.033197"
       gridpoint29x31="73.394852,56.033197"
       gridpoint32x33x34x35="72.754276,56.033197"
       id="path-effect981"
       is_visible="true"
       lpeversion="1"
       horizontal_mirror="false"
       vertical_mirror="true"
       perimetral="false"
       live_update="false" />
    <inkscape:path-effect
       effect="lattice2"
       gridpoint0="71.51893,53.728791"
       gridpoint1="73.989622,53.728791"
       gridpoint2="71.473125,58.540617"
       gridpoint3="74.035427,58.540617"
       gridpoint4="72.1137,53.525776"
       gridpoint5="73.394852,53.525776"
       gridpoint6="72.1137,58.540617"
       gridpoint7="73.394852,58.540617"
       gridpoint8x9="72.754276,53.525776"
       gridpoint10x11="72.754276,58.540617"
       gridpoint12="71.473125,54.779487"
       gridpoint13="74.035427,54.779487"
       gridpoint14="70.713601,58.00587"
       gridpoint15="74.794951,58.00587"
       gridpoint16="72.1137,54.920868"
       gridpoint17="73.394852,54.920868"
       gridpoint18="72.1137,57.334034"
       gridpoint19="73.394852,57.334034"
       gridpoint20x21="72.754276,54.920868"
       gridpoint22x23="72.754276,57.334034"
       gridpoint24x26="71.473125,56.033197"
       gridpoint25x27="74.035427,56.033197"
       gridpoint28x30="72.1137,56.127451"
       gridpoint29x31="73.394852,56.127451"
       gridpoint32x33x34x35="72.754276,56.127451"
       id="path-effect972"
       is_visible="true"
       lpeversion="1"
       horizontal_mirror="false"
       vertical_mirror="true"
       perimetral="true"
       live_update="true" />
    <inkscape:path-effect
       effect="lattice2"
       gridpoint0="71.473125,53.525776"
       gridpoint1="74.035427,53.525776"
       gridpoint2="71.473125,58.540617"
       gridpoint3="74.035427,58.540617"
       gridpoint4="72.1137,53.525776"
       gridpoint5="73.394852,53.525776"
       gridpoint6="72.1137,58.540617"
       gridpoint7="73.394852,58.540617"
       gridpoint8x9="72.754276,53.525776"
       gridpoint10x11="72.754276,58.540617"
       gridpoint12="71.473125,54.779487"
       gridpoint13="74.035427,54.779487"
       gridpoint14="71.473125,57.286907"
       gridpoint15="74.035427,57.286907"
       gridpoint16="72.1137,54.779487"
       gridpoint17="73.394852,54.779487"
       gridpoint18="72.1137,57.286907"
       gridpoint19="73.394852,57.286907"
       gridpoint20x21="72.754276,54.779487"
       gridpoint22x23="72.754276,57.286907"
       gridpoint24x26="71.473125,56.033197"
       gridpoint25x27="74.035427,56.033197"
       gridpoint28x30="72.1137,56.033197"
       gridpoint29x31="73.394852,56.033197"
       gridpoint32x33x34x35="72.754276,56.033197"
       id="path-effect970"
       is_visible="true"
       lpeversion="1"
       horizontal_mirror="false"
       vertical_mirror="false"
       perimetral="false"
       live_update="true" />
    <inkscape:path-effect
       effect="lattice2"
       gridpoint0="71.51893,53.728791"
       gridpoint1="73.989622,53.728791"
       gridpoint2="71.473125,58.540617"
       gridpoint3="74.035427,58.540617"
       gridpoint4="72.1137,53.525776"
       gridpoint5="73.394852,53.525776"
       gridpoint6="72.1137,58.540617"
       gridpoint7="73.394852,58.540617"
       gridpoint8x9="72.754276,53.525776"
       gridpoint10x11="72.754276,58.540617"
       gridpoint12="71.473125,54.779487"
       gridpoint13="74.035427,54.779487"
       gridpoint14="70.713601,58.00587"
       gridpoint15="74.794951,58.00587"
       gridpoint16="72.1137,54.497796"
       gridpoint17="73.394852,54.497796"
       gridpoint18="72.1137,57.193009"
       gridpoint19="73.394852,57.193009"
       gridpoint20x21="72.754276,54.497796"
       gridpoint22x23="72.754276,57.193009"
       gridpoint24x26="71.473125,56.033197"
       gridpoint25x27="74.035427,56.033197"
       gridpoint28x30="72.1137,55.845403"
       gridpoint29x31="73.394852,55.845403"
       gridpoint32x33x34x35="72.754276,55.845403"
       id="path-effect948"
       is_visible="true"
       lpeversion="1"
       horizontal_mirror="false"
       vertical_mirror="true"
       perimetral="true"
       live_update="true" />
    <inkscape:path-effect
       effect="lattice2"
       gridpoint0="71.373877,53.611538"
       gridpoint1="74.134675,53.611538"
       gridpoint2="71.473125,58.540617"
       gridpoint3="74.035427,58.540617"
       gridpoint4="72.096323,53.532044"
       gridpoint5="73.412229,53.532044"
       gridpoint6="72.1137,58.540617"
       gridpoint7="73.394852,58.540617"
       gridpoint8x9="72.697181,54.080328"
       gridpoint10x11="72.754276,58.540617"
       gridpoint12="71.657926,54.839849"
       gridpoint13="73.961014,54.793092"
       gridpoint14="70.781895,57.420673"
       gridpoint15="74.726657,57.420673"
       gridpoint16="72.1137,54.779487"
       gridpoint17="73.394852,54.779487"
       gridpoint18="72.1137,57.286907"
       gridpoint19="73.394852,57.286907"
       gridpoint20x21="72.754276,54.779487"
       gridpoint22x23="72.754276,57.286907"
       gridpoint24x26="71.473125,56.033197"
       gridpoint25x27="74.035427,56.033197"
       gridpoint28x30="72.1137,56.033197"
       gridpoint29x31="73.394852,56.033197"
       gridpoint32x33x34x35="72.754276,56.033197"
       id="path-effect946"
       is_visible="true"
       lpeversion="1"
       horizontal_mirror="false"
       vertical_mirror="true"
       perimetral="false"
       live_update="false" />
    <inkscape:path-effect
       effect="lattice2"
       gridpoint0="71.473125,53.525776"
       gridpoint1="74.035427,53.525776"
       gridpoint2="71.473125,58.540617"
       gridpoint3="74.035427,58.540617"
       gridpoint4="72.1137,53.525776"
       gridpoint5="73.394852,53.525776"
       gridpoint6="72.1137,58.540617"
       gridpoint7="73.394852,58.540617"
       gridpoint8x9="72.754276,53.525776"
       gridpoint10x11="72.754276,58.540617"
       gridpoint12="71.473125,54.779487"
       gridpoint13="74.035427,54.779487"
       gridpoint14="71.473125,57.286907"
       gridpoint15="74.035427,57.286907"
       gridpoint16="72.1137,54.779487"
       gridpoint17="73.394852,54.779487"
       gridpoint18="72.1137,57.286907"
       gridpoint19="73.394852,57.286907"
       gridpoint20x21="72.754276,54.779487"
       gridpoint22x23="72.754276,57.286907"
       gridpoint24x26="71.473125,56.033197"
       gridpoint25x27="74.035427,56.033197"
       gridpoint28x30="72.1137,56.033197"
       gridpoint29x31="73.394852,56.033197"
       gridpoint32x33x34x35="72.754276,56.033197"
       id="path-effect944"
       is_visible="true"
       lpeversion="1"
       horizontal_mirror="true"
       vertical_mirror="false"
       perimetral="false"
       live_update="true" />
    <inkscape:path-effect
       effect="interpolate"
       id="path-effect6059"
       is_visible="true"
       lpeversion="1"
       trajectory="m 70.654747,48.666253 v 1.496553"
       equidistant_spacing="true"
       steps="5" />
    <inkscape:path-effect
       effect="powerstroke"
       id="path-effect5953"
       is_visible="true"
       lpeversion="1"
       offset_points="0.2,0.048821852 | 0.86918786,0.078504024 | 1.5371087,0.10811531"
       sort_points="true"
       interpolator_type="CentripetalCatmullRom"
       interpolator_beta="0.2"
       start_linecap_type="zerowidth"
       linejoin_type="bevel"
       miter_limit="4"
       scale_width="1"
       end_linecap_type="zerowidth" />
    <inkscape:path-effect
       effect="powerstroke"
       id="path-effect5949"
       is_visible="true"
       lpeversion="1"
       offset_points="0.2,0.048821852 | 0.86918786,0.078504024 | 1.5371087,0.10811531"
       sort_points="true"
       interpolator_type="CentripetalCatmullRom"
       interpolator_beta="0.2"
       start_linecap_type="zerowidth"
       linejoin_type="bevel"
       miter_limit="4"
       scale_width="1"
       end_linecap_type="zerowidth" />
    <inkscape:path-effect
       effect="bounding_box"
       id="path-effect5947"
       is_visible="true"
       lpeversion="1"
       linkedpath=""
       visualbounds="true" />
    <inkscape:path-effect
       effect="curvestitching"
       id="path-effect1529"
       is_visible="true"
       lpeversion="1"
       count="5"
       startpoint_edge_variation="0;1"
       startpoint_spacing_variation="0;1"
       endpoint_edge_variation="0;1"
       endpoint_spacing_variation="0;1"
       strokepath="M 0,0 H 1"
       prop_scale="1"
       scale_y_rel="false" />
    <inkscape:path-effect
       effect="curvestitching"
       id="path-effect1526"
       is_visible="true"
       lpeversion="1"
       count="5"
       startpoint_edge_variation="0;1"
       startpoint_spacing_variation="0;1"
       endpoint_edge_variation="0;1"
       endpoint_spacing_variation="0;1"
       strokepath="M 0,0 H 1"
       prop_scale="1"
       scale_y_rel="false" />
    <inkscape:path-effect
       effect="curvestitching"
       id="path-effect1520"
       is_visible="true"
       lpeversion="1"
       count="9"
       startpoint_edge_variation="0;458577673"
       startpoint_spacing_variation="0;1"
       endpoint_edge_variation="0;1"
       endpoint_spacing_variation="0;1"
       strokepath="M 0,0 H 1"
       prop_scale="1"
       scale_y_rel="false" />
    <marker
       style="overflow:visible"
       id="marker1188"
       refX="0"
       refY="0"
       orient="auto"
       inkscape:stockid="Arrow1Lend"
       inkscape:isstock="true">
      <path
         transform="matrix(-0.8,0,0,-0.8,-10,0)"
         style="fill:#0065ff;fill-opacity:1;fill-rule:evenodd;stroke:#0065ff;stroke-width:1pt;stroke-opacity:1"
         d="M 0,0 5,-5 -12.5,0 5,5 Z"
         id="path1186" />
    </marker>
    <filter
       inkscape:label="Dripping"
       height="2"
       width="1.3"
       y="-0.5"
       x="-0.15000001"
       inkscape:menu="Protrusions"
       inkscape:menu-tooltip="Random paint streaks downwards"
       style="color-interpolation-filters:sRGB"
       id="filter75">
      <feConvolveMatrix
         order="3 3"
         kernelMatrix="0 -1 0 0 -1 0 0 2 0"
         result="result1"
         divisor="6.03"
         id="feConvolveMatrix53" />
      <feTurbulence
         numOctaves="1"
         baseFrequency="0.078 0.010"
         result="result0"
         id="feTurbulence55" />
      <feColorMatrix
         result="result2"
         values="1 0 0 0 0 0 1 0 0 0 0 0 1 0 0 0 0 0 10 -3.5"
         id="feColorMatrix57" />
      <feComposite
         in2="result2"
         in="result1"
         operator="in"
         id="feComposite59" />
      <feMorphology
         operator="dilate"
         radius="1 30"
         id="feMorphology61" />
      <feColorMatrix
         values="1 0 0 0 0 0 1 0 0 0 0 0 1 0 0 0 0 0 50 0"
         result="result3"
         id="feColorMatrix63" />
      <feOffset
         dx="0"
         dy="1.4"
         result="result4"
         id="feOffset65" />
      <feTurbulence
         numOctaves="2"
         baseFrequency="0.032 0.025"
         result="result8"
         id="feTurbulence67" />
      <feColorMatrix
         values="0 0 0 0 0.52 0 -0.4 0 0 0.45 0 0 1 0 0 0 0 0 1 0"
         result="result91"
         id="feColorMatrix69" />
      <feDisplacementMap
         in="result4"
         xChannelSelector="R"
         yChannelSelector="G"
         scale="100"
         result="result9"
         in2="result91"
         id="feDisplacementMap71" />
      <feComposite
         in="SourceGraphic"
         in2="result9"
         id="feComposite73" />
    </filter>
  </defs>
  <sodipodi:namedview
     id="base"
     pagecolor="#ffffff"
     bordercolor="#666666"
     borderopacity="1.0"
     inkscape:pageopacity="0.0"
     inkscape:pageshadow="2"
     inkscape:zoom="3.5516105"
     inkscape:cx="28.922402"
     inkscape:cy="6.5824017"
     inkscape:document-units="mm"
     inkscape:current-layer="layer2"
     inkscape:document-rotation="0"
     showgrid="true"
     inkscape:window-width="2556"
     inkscape:window-height="1380"
     inkscape:window-x="0"
     inkscape:window-y="0"
     inkscape:window-maximized="1"
     inkscape:snap-grids="true"
     showguides="true"
     inkscape:guide-bbox="true"
     inkscape:snap-to-guides="false"
     inkscape:snap-others="false"
     inkscape:object-nodes="false"
     inkscape:snap-nodes="false"
     inkscape:snap-global="true"
     fit-margin-top="0"
     fit-margin-left="0"
     fit-margin-right="0"
     fit-margin-bottom="0">
    <inkscape:grid
       type="xygrid"
       id="grid5918"
       originx="-27.602391"
       originy="-16.994838" />
    <sodipodi:guide
       position="48.862188,8.6920427"
       orientation="0,-1"
       id="guide5937" />
    <sodipodi:guide
       position="47.803854,9.2212127"
       orientation="0,-1"
       id="guide5939" />
    <sodipodi:guide
       position="47.803854,8.1628727"
       orientation="0,-1"
       id="guide5941" />
    <sodipodi:guide
       position="45.158021,10.544123"
       orientation="1,0"
       id="guide5943" />
  </sodipodi:namedview>
  <metadata
     id="metadata5">
    <rdf:RDF>
      <cc:Work
         rdf:about="">
        <dc:format>image/svg+xml</dc:format>
        <dc:type
           rdf:resource="http://purl.org/dc/dcmitype/StillImage" />
        <dc:title></dc:title>
      </cc:Work>
    </rdf:RDF>
  </metadata>
  <g
     inkscape:groupmode="layer"
     id="layer3"
     inkscape:label="Layer 3"
     style="display:inline"
     sodipodi:insensitive="true">
    <rect
       style="fill:#cccccc;fill-opacity:1;fill-rule:evenodd;stroke:#008080;stroke-width:0.09919;stroke-miterlimit:4;stroke-dasharray:none;stroke-opacity:1;stop-color:#000000"
       id="rect6087"
       width="41.553677"
       height="40.555019"
       x="0.19194758"
       y="0.21471584" />
  </g>
  <g
     inkscape:label="Layer 1"
     inkscape:groupmode="layer"
     id="layer1"
     style="display:inline"
     transform="translate(-27.602392,-16.994839)"
     sodipodi:insensitive="true">
    <text
       xml:space="preserve"
       style="font-style:normal;font-variant:normal;font-weight:normal;font-stretch:normal;font-size:11.2889px;line-height:1em;font-family:Anton;-inkscape-font-specification:'Anton, Normal';font-variant-ligatures:normal;font-variant-caps:normal;font-variant-numeric:normal;font-variant-east-asian:normal;letter-spacing:0.264583px;word-spacing:0px;stroke-width:0.264583"
       x="35.847858"
       y="23.023829"
       id="text12"
       transform="rotate(10)"><tspan
         sodipodi:role="line"
         id="tspan896"
         x="35.847858"
         y="23.023829">Water</tspan><tspan
         sodipodi:role="line"
         id="tspan898"
         x="35.847858"
         y="34.312729">Data</tspan><tspan
         sodipodi:role="line"
         id="tspan900"
         x="35.847858"
         y="45.601631">Science</tspan></text>
    <text
       xml:space="preserve"
       style="font-style:normal;font-variant:normal;font-weight:normal;font-stretch:normal;font-size:11.2889px;line-height:1em;font-family:Anton;-inkscape-font-specification:'Anton, Normal';font-variant-ligatures:normal;font-variant-caps:normal;font-variant-numeric:normal;font-variant-east-asian:normal;letter-spacing:0.264583px;word-spacing:0px;fill:#000099;fill-opacity:1;stroke-width:0.264583"
       x="35.847858"
       y="23.023829"
       id="text908"
       transform="rotate(10)"><tspan
         sodipodi:role="line"
         id="tspan910"
         x="35.847858"
         y="23.023829">Wa</tspan><tspan
         sodipodi:role="line"
         id="tspan912"
         x="35.847858"
         y="34.312729">Da</tspan></text>
  </g>
  <g
     inkscape:groupmode="layer"
     id="layer2"
     inkscape:label="Layer 2"
     transform="translate(-27.602392,-16.994839)"
     style="display:inline"
     sodipodi:insensitive="true">
    <path
       id="path6076"
       style="fill:#0055ff;fill-opacity:1;fill-rule:evenodd;stroke:#000008;stroke-width:0.0870677;stroke-miterlimit:4;stroke-dasharray:none;stroke-opacity:1;stop-color:#000000"
       d="m 37.127561,17.624604 c -1.168318,-0.385894 -2.572,-0.131431 -3.094515,0.307876 1.597285,0.24467 1.417663,0.802857 2.585979,1.188749 0.206484,0.06817 0.406667,0.119124 0.601948,0.161919 l 0.458768,-1.442859 c -0.174107,-0.07713 -0.356201,-0.150959 -0.55218,-0.215685 z"
       sodipodi:nodetypes="cccccc" />
    <path
       d="m 36.615946,18.098267 0.9105,0.2889 -0.1149,0.3621 -0.9106,-0.289 z m 1.0995,0.3489 0.9105,0.2889 -0.1149,0.3621 -0.9105,-0.2889 z m 1.0995,0.3489 0.9136,0.251 -0.0999,0.3665 -0.9286,-0.2554 z m 1.1049,0.3031 0.9217,0.251 -0.0998,0.3666 -0.9218,-0.2511 z m 1.113,0.3031 0.9235,0.2156 -0.0863,0.3699 -0.937,-0.2189 z m 1.1166,0.2606 0.9303,0.2171 -0.0863,0.3699 -0.9303,-0.217 z m 1.1185,0.2565 0.9367,0.1878 -0.0746,0.3725 -0.9367,-0.1878 z m 1.1311,0.2268 0.9315,0.1804 -0.0619,0.3748 -0.9442,-0.1827 z m 1.1271,0.2128 0.9426,0.1557 -0.062,0.3749 -0.9425,-0.1558 z m 1.1382,0.1881 0.9425,0.1558 -0.062,0.3748 -0.9425,-0.1558 z m 1.1381,0.1881 0.9425,0.1558 -0.0619,0.3748 -0.9425,-0.1558 z m 1.1345,0.1873 0.9455,0.1375 -0.0547,0.3759 -0.9454,-0.1374 z m 1.1417,0.166 0.9454,0.1374 -0.0547,0.376 -0.9454,-0.1374 z m 1.1416,0.166 0.9454,0.1374 -0.0546,0.376 -0.9454,-0.1375 z m 1.1459,0.1676 0.9418,0.1594 -0.0634,0.3746 -0.9418,-0.1594 z m 1.1373,0.1925 0.9419,0.1594 -0.0634,0.3746 -0.9419,-0.1594 z m 1.1373,0.1925 0.9491,0.1783 -0.0844,0.3704 -0.9281,-0.1742 z m 1.1424,0.2223 0.9414,0.223 -0.1085,0.364 -0.9173,-0.2166 z m 1.1313,0.2796 0.9265,0.2796 -0.1326,0.356 -0.9023,-0.2716 z m 1.1123,0.3488 0.9011,0.3782 -0.1739,0.3377 -0.8598,-0.3599 z m 1.0774,0.469 0.8415,0.5089 -0.2242,0.3066 -0.7912,-0.4778 z m 1.0015,0.6259 0.7271,0.6704 -0.2779,0.2589 -0.6734,-0.6227 z m 0.8705,0.834 0.5294,0.8579 -0.3577,0.1278 -0.4748,-0.7568 z m 0.5961,1.0446 0.1546,1.004 -0.3797,6e-4 -0.1326,-0.8769 z m 0.155,1.2021 -0.0852,0.9859 -0.3731,-0.0711 0.0786,-0.9141 z m -0.1223,1.1806 -0.2195,0.9421 -0.3676,-0.0958 0.214,-0.9174 z m -0.2759,1.1427 -0.3096,0.9155 -0.3542,-0.1371 0.3018,-0.8938 z m -0.3811,1.1003 -0.3447,0.8909 -0.3542,-0.1371 0.3446,-0.8908 z m -0.4209,1.0853 -0.3938,0.8703 -0.3461,-0.1566 0.3938,-0.8703 z m -0.4756,1.0509 -0.4131,0.8704 -0.3388,-0.1717 0.4058,-0.8553 z m -0.5027,1.0473 -0.432,0.8521 -0.3388,-0.1718 0.4319,-0.8521 z m -0.5216,1.0289 -0.432,0.8521 -0.3388,-0.1718 0.4319,-0.8521 z m -0.5216,1.0289 -0.4348,0.8527 -0.3372,-0.1751 0.4331,-0.8494 z m -0.5262,1.0287 -0.4403,0.8478 -0.3372,-0.1751 0.4403,-0.8478 z m -0.5317,1.0238 -0.4403,0.8478 -0.3372,-0.1751 0.4403,-0.8478 z m -0.5317,1.0237 -0.4337,0.8448 -0.3423,-0.1649 0.4388,-0.8549 z m -0.5197,1.0234 -0.4145,0.8607 -0.3423,-0.1648 0.4145,-0.8607 z m -0.5006,1.0393 -0.3736,0.869 -0.3498,-0.148 0.3812,-0.8858 z m -0.4508,1.0516 -0.3391,0.8807 -0.3579,-0.1273 0.3472,-0.9014 z m -0.3981,1.0587 -0.2346,0.9105 -0.3714,-0.0795 0.2415,-0.9381 z m -0.2647,1.0866 -0.0117,0.8975 -0.3743,0.0643 0.0086,-1.0031 z m 0.0299,1.0693 0.4968,0.6276 -0.2109,0.3157 -0.6507,-0.8379 z m 0.6616,0.7376 0.8083,0.4682 -0.1772,0.3359 -0.842,-0.4883 z m 0.9698,0.5523 0.8717,0.356 -0.1236,0.3592 -0.8963,-0.3654 z m 1.0592,0.4205 0.9019,0.2794 -0.1032,0.3656 -0.9223,-0.2858 z m 1.0927,0.3333 0.9112,0.2172 -0.0672,0.3738 -0.9472,-0.2254 z m 1.1063,0.2523 0.9402,0.169 -0.0673,0.3739 -0.9401,-0.1691 z m 1.1353,0.2041 0.9354,0.1336 -0.0474,0.3769 -0.9553,-0.1366 z m 1.1321,0.1583 0.9478,0.1191 -0.0473,0.3769 -0.9478,-0.1191 z m 1.1445,0.1438 0.9479,0.1191 -0.0474,0.3769 -0.9478,-0.1191 z m 1.1457,0.1448 0.9471,0.1253 -0.0499,0.3766 -0.947,-0.1253 z m 1.1522,0.1563 0.9628,0.2392 -0.1438,0.3512 -0.8872,-0.2167 z m 1.1737,0.3298 0.761,0.6945 -0.3225,0.2003 -0.6387,-0.5725 z m 0.8656,0.8627 0.3199,0.9774 -0.376,0.0527 -0.2664,-0.8297 z m 0.3474,1.1736 0.0125,0.9904 -0.3789,-0.0236 -0.0096,-0.9141 z m -31.3592,-31.7166 0.9105,0.289 -0.1149,0.3621 -0.9105,-0.289 z m 1.0995,0.349 0.9106,0.2889 -0.115,0.3621 -0.9105,-0.289 z m 1.0995,0.3489 0.9368,0.2578 -0.0998,0.3665 -0.9519,-0.2622 z m 1.1281,0.3099 0.9217,0.2511 -0.0998,0.3665 -0.9217,-0.2511 z m 1.113,0.3032 0.9444,0.2208 -0.0863,0.3699 -0.9579,-0.2242 z m 1.1375,0.2658 0.9303,0.2171 -0.0863,0.3699 -0.9303,-0.217 z m 1.1365,0.2604 0.9367,0.1878 -0.0747,0.3725 -0.9367,-0.1878 z m 1.1311,0.2268 0.9511,0.184 -0.062,0.3748 -0.9638,-0.1863 z m 1.1467,0.2163 0.9425,0.1558 -0.062,0.3748 -0.9425,-0.1558 z m 1.1381,0.1881 0.9425,0.1558 -0.0619,0.3748 -0.9426,-0.1557 z m 1.1381,0.1882 0.9426,0.1558 -0.062,0.3748 -0.9425,-0.1558 z m 1.1458,0.1891 0.9454,0.1374 -0.0546,0.376 -0.9455,-0.1374 z m 1.1416,0.166 0.9455,0.1374 -0.0547,0.376 -0.9454,-0.1375 z m 1.1417,0.1659 0.9454,0.1375 -0.0546,0.3759 -0.9455,-0.1374 z m 1.1324,0.1655 0.9418,0.1594 -0.0633,0.3745 -0.9419,-0.1593 z m 1.1373,0.1925 0.9419,0.1594 -0.0634,0.3745 -0.9419,-0.1594 z m 1.1374,0.1925 0.9167,0.1718 -0.0844,0.3704 -0.8957,-0.1677 z m 1.11,0.2159 0.9043,0.2131 -0.1085,0.3641 -0.8802,-0.2069 z m 1.0942,0.2697 0.8893,0.2673 -0.1326,0.356 -0.8651,-0.2592 z m 1.0751,0.3365 0.8375,0.35 -0.1739,0.3377 -0.7962,-0.3317 z m 1.0137,0.4408 0.764,0.461 -0.2241,0.3065 -0.7138,-0.4298 z m 0.924,0.5779 0.6444,0.5969 -0.2779,0.2589 -0.5906,-0.5492 z m 0.749,0.7143 0.4452,0.7021 -0.3576,0.1278 -0.3906,-0.601 z m 0.5119,0.8888 0.1207,0.8081 -0.3797,7e-4 -0.0986,-0.681 z m 0.1211,1.0063 -0.0751,0.8752 -0.3731,-0.0711 0.0685,-0.8035 z m -0.1122,1.0699 -0.2109,0.904 -0.3676,-0.0959 0.2054,-0.8792 z m -0.2587,1.0745 -0.2977,0.8821 -0.3542,-0.1371 0.29,-0.8604 z m -0.3692,1.0669 -0.3447,0.8909 -0.3542,-0.1371 0.3446,-0.8908 z m -0.4083,1.0551 -0.3939,0.8704 -0.346,-0.1567 0.3938,-0.8703 z m -0.4756,1.051 -0.4019,0.847 -0.3389,-0.1717 0.3947,-0.8319 z m -0.4916,1.0239 -0.4319,0.8521 -0.3389,-0.1718 0.432,-0.8521 z m -0.5216,1.0289 -0.4319,0.8521 -0.3389,-0.1718 0.432,-0.8521 z m -0.5216,1.0289 -0.4322,0.8476 -0.3371,-0.1751 0.4305,-0.8443 z m -0.5236,1.0236 -0.4403,0.8478 -0.3371,-0.1751 0.4403,-0.8478 z m -0.5317,1.0237 -0.4403,0.8479 -0.3371,-0.1751 0.4403,-0.8479 z m -0.5317,1.0238 -0.4415,0.8606 -0.3423,-0.1649 0.4467,-0.8708 z m -0.5276,1.0392 -0.4145,0.8607 -0.3422,-0.1648 0.4145,-0.8607 z m -0.5005,1.0393 -0.3852,0.8949 -0.3499,-0.148 0.3928,-0.9117 z m -0.4625,1.0775 -0.3515,0.9126 -0.3579,-0.1273 0.3596,-0.9333 z m -0.4206,1.1218 -0.2453,0.953 -0.3714,-0.0795 0.2523,-0.9807 z m -0.2847,1.188 -0.0069,1.0601 -0.3742,0.0643 0.0037,-1.1657 z m 0.0494,1.2953 0.7339,0.9518 -0.2109,0.3157 -0.8878,-1.1621 z m 0.8987,1.0618 0.8602,0.4992 -0.1772,0.3359 -0.8939,-0.5193 z m 1.0665,0.6047 0.9096,0.3705 -0.1236,0.3592 -0.9341,-0.38 z m 1.097,0.435 0.9334,0.2893 -0.1032,0.3656 -0.9538,-0.2957 z m 1.1242,0.3431 0.9666,0.23 -0.0672,0.3739 -1.0026,-0.2383 z m 1.1617,0.2651 0.9402,0.169 -0.0673,0.3739 -0.9401,-0.1691 z m 1.1353,0.2041 0.966,0.1383 -0.0473,0.3769 -0.986,-0.1413 z m 1.1627,0.163 0.9479,0.1191 -0.0474,0.3769 -0.9478,-0.1191 z m 1.1446,0.1438 0.9478,0.1191 -0.0474,0.3769 -0.9478,-0.1191 z m 1.1418,0.1443 0.9471,0.1253 -0.0499,0.3766 -0.947,-0.1253 z m 1.1239,0.1519 0.8463,0.2045 -0.1438,0.3512 -0.7706,-0.182 z m 0.9704,0.2506 0.5725,0.5065 -0.3225,0.2004 -0.4502,-0.3845 z m 0.6771,0.6748 0.2374,0.7498 -0.3759,0.0527 -0.184,-0.6021 z m 0.2649,0.946 0.0081,0.8728 -0.3788,-0.0236 -0.0052,-0.7965 z m -30.4257,-32.9137 0.9106,0.2889 -0.1149,0.3621 -0.9106,-0.2889 z m 1.0995,0.3489 0.9106,0.289 -0.1149,0.3621 -0.9106,-0.289 z m 1.0996,0.3489 0.8903,0.2441 -0.0998,0.3666 -0.9054,-0.2486 z m 1.0816,0.2962 0.9217,0.2511 -0.0998,0.3665 -0.9217,-0.251 z m 1.113,0.3032 0.9027,0.2103 -0.0863,0.3699 -0.9162,-0.2137 z m 1.0958,0.2553 0.9304,0.2171 -0.0864,0.3699 -0.9303,-0.217 z m 1.1006,0.2526 0.9367,0.1878 -0.0747,0.3725 -0.9367,-0.1878 z m 1.1311,0.2268 0.9119,0.1768 -0.062,0.3749 -0.9246,-0.1792 z m 1.1075,0.2092 0.9425,0.1558 -0.0619,0.3748 -0.9426,-0.1558 z m 1.1381,0.1881 0.9426,0.1558 -0.062,0.3748 -0.9425,-0.1558 z m 1.1382,0.1881 0.9425,0.1558 -0.062,0.3748 -0.9425,-0.1558 z m 1.1233,0.1856 0.9454,0.1374 -0.0547,0.376 -0.9454,-0.1375 z m 1.1416,0.166 0.9454,0.1374 -0.0546,0.376 -0.9455,-0.1375 z m 1.1416,0.1659 0.9455,0.1375 -0.0547,0.3759 -0.9454,-0.1374 z m 1.1593,0.1699 0.9419,0.1594 -0.0634,0.3745 -0.9419,-0.1594 z m 1.1374,0.1924 0.9418,0.1594 -0.0633,0.3746 -0.9419,-0.1594 z m 1.1373,0.1925 0.9814,0.1847 -0.0844,0.3704 -0.9604,-0.1805 z m 1.1747,0.2287 0.9785,0.2329 -0.1085,0.364 -0.9544,-0.2265 z m 1.1685,0.2895 0.9636,0.2919 -0.1326,0.356 -0.9395,-0.2839 z m 1.1494,0.3611 0.9648,0.4065 -0.1739,0.3377 -0.9235,-0.3882 z m 1.141,0.4972 0.919,0.5568 -0.2242,0.3066 -0.8687,-0.5257 z m 1.079,0.6738 0.8098,0.744 -0.2778,0.2589 -0.7562,-0.6963 z m 0.992,0.9538 0.6136,1.0137 -0.3577,0.1278 -0.5589,-0.9126 z m 0.6803,1.2003 0.1886,1.1999 -0.3797,7e-4 -0.1666,-1.0728 z m 0.189,1.3981 -0.0953,1.0964 -0.3732,-0.0711 0.0888,-1.0246 z m -0.1324,1.2911 -0.2281,0.9804 -0.3676,-0.0959 0.2225,-0.9556 z m -0.2932,1.211 -0.3214,0.9489 -0.3542,-0.1371 0.3137,-0.9272 z m -0.3929,1.1337 -0.3447,0.8909 -0.3542,-0.1371 0.3446,-0.8908 z m -0.4334,1.1154 -0.3939,0.8704 -0.3461,-0.1567 0.3939,-0.8703 z m -0.4756,1.051 -0.4244,0.8937 -0.3388,-0.1717 0.4171,-0.8786 z m -0.514,1.0706 -0.432,0.8521 -0.3388,-0.1718 0.432,-0.8521 z m -0.5216,1.0289 -0.432,0.8521 -0.3388,-0.1718 0.432,-0.8521 z m -0.5216,1.0289 -0.4374,0.8578 -0.3371,-0.1751 0.4357,-0.8545 z m -0.5288,1.0338 -0.4403,0.8478 -0.3371,-0.1751 0.4403,-0.8478 z m -0.5317,1.0238 -0.4403,0.8478 -0.3371,-0.1751 0.4403,-0.8478 z m -0.5317,1.0238 -0.4258,0.8289 -0.3422,-0.1649 0.4309,-0.8391 z m -0.5118,1.0075 -0.4145,0.8607 -0.3423,-0.1648 0.4145,-0.8607 z m -0.5005,1.0393 -0.362,0.8431 -0.3498,-0.148 0.3695,-0.8599 z m -0.4392,1.0257 -0.3266,0.8488 -0.3579,-0.1273 0.3346,-0.8695 z m -0.3757,0.9957 -0.2239,0.868 -0.3713,-0.0795 0.2308,-0.8956 z m -0.2445,0.9851 -0.0167,0.7349 -0.3742,0.0643 0.0134,-0.8405 z m 0.0103,0.8433 0.2596,0.3034 -0.2109,0.3157 -0.4135,-0.5137 z m 0.4244,0.4134 0.7564,0.4372 -0.1772,0.3359 -0.7901,-0.4573 z m 0.8731,0.5 0.834,0.3414 -0.1236,0.3592 -0.8585,-0.3509 z m 1.0214,0.4059 0.8704,0.2695 -0.1031,0.3656 -0.8909,-0.2759 z m 1.0612,0.3234 0.8559,0.2045 -0.0673,0.3738 -0.8917,-0.2127 z m 1.051,0.2395 0.9401,0.1691 -0.0672,0.3739 -0.9401,-0.1691 z m 1.1353,0.2042 0.9048,0.1289 -0.0474,0.3769 -0.9247,-0.132 z m 1.1015,0.1536 0.9478,0.1191 -0.0473,0.3769 -0.9479,-0.1191 z m 1.1445,0.1438 0.9478,0.1191 -0.0473,0.3769 -0.9478,-0.1191 z m 1.1495,0.1452 0.9471,0.1253 -0.0499,0.3767 -0.947,-0.1254 z m 1.1805,0.1608 1.0793,0.274 -0.1438,0.3511 -1.0037,-0.2514 z m 1.3771,0.4089 0.9494,0.8825 -0.3224,0.2004 -0.8272,-0.7606 z m 1.054,1.0508 0.4024,1.2048 -0.376,0.0527 -0.3489,-1.0572 z m 0.4299,1.4011 0.0169,1.108 -0.3789,-0.0236 -0.014,-1.0317 z"
       style="fill:#0055ff;fill-opacity:1;fill-rule:evenodd;stroke:#000008;stroke-width:0.1;stroke-miterlimit:4;stroke-dasharray:none;stroke-opacity:1;stop-color:#000000"
       id="path1304" />
    <g
       id="g1015"
       transform="rotate(-173.72174,69.924027,55.024293)">
      <g
         id="g977">
        <g
           id="g966"
           transform="matrix(1,0,0,-1,-4.7718563,104.759)">
          <path
             style="fill:none;stroke:#d40000;stroke-width:0.1;stroke-linecap:butt;stroke-linejoin:miter;stroke-miterlimit:4;stroke-dasharray:none;stroke-opacity:1"
             d="m 77.550851,50.583513 c 0,0 0.08028,0.370266 0.01605,0.537663 -0.03393,0.08841 -0.19308,0.11075 -0.196267,0.205389 -0.0082,0.243215 0.467749,0.560535 0.467749,0.560535"
             id="path5955"
             sodipodi:nodetypes="cssc" />
          <path
             style="fill:#d40000;fill-opacity:1;stroke:none;stroke-width:0.131993;stroke-linecap:butt;stroke-linejoin:miter;stroke-miterlimit:4;stroke-dasharray:none;stroke-opacity:1"
             d="m 77.7458,51.807873 0.373597,0.02055 -0.239159,0.0734 -0.09059,0.258524 z"
             id="path5959" />
        </g>
      </g>
      <ellipse
         style="fill:#000058;fill-opacity:1;fill-rule:evenodd;stroke:none;stroke-width:0.231703;stroke-miterlimit:4;stroke-dasharray:0.231703, 0.231703;stroke-dashoffset:0;stroke-opacity:1;stop-color:#000000"
         id="path997"
         cx="72.745888"
         cy="56.977833"
         rx="1.7285042"
         ry="2.0736585" />
      <path
         id="path5077"
         style="fill:#0055ff;fill-opacity:1;fill-rule:evenodd;stroke:#070005;stroke-width:0.148708;stroke-miterlimit:4;stroke-dasharray:none;stroke-opacity:1;stop-color:#000000"
         d="m 74.406989,56.314458 c -0.09498,-1.080945 -0.587082,-1.962418 -0.674505,-2.083434 -0.28054,-0.388381 -0.865808,-0.492632 -0.985969,-0.422918 -0.04847,-0.02355 -0.248656,0.02874 -0.42137,0.09287 -0.190531,0.07074 -0.359938,0.169598 -0.475964,0.329415 -0.116514,0.16049 -0.613458,1.009915 -0.750303,2.119617 -0.151512,1.228845 0.742241,2.178689 1.258728,2.190585 0.128591,0.003 0.23859,-0.271076 0.374143,-0.396135 0.118117,0.09951 0.214772,0.367999 0.326524,0.370698 0.240362,0.0056 0.568395,-0.215494 0.874365,-0.613676 0.318438,-0.414407 0.519749,-0.909472 0.478225,-1.532179 -0.001,-0.01826 -0.0024,-0.03658 -0.0039,-0.05484 0,0 -3e-6,3e-6 -3e-6,3e-6 z"
         sodipodi:nodetypes="csczccccccc"
         inkscape:path-effect="#path-effect946"
         inkscape:original-d="m 74.03486,56.446566 c 0.01321,-1.106452 -0.207285,-1.717479 -0.355419,-1.997371 -0.253297,-0.478643 -0.760252,-0.823922 -0.880211,-0.714593 -0.101826,-0.08708 -0.67667,0.360467 -0.87522,0.715391 -0.198548,0.354921 -0.423281,0.90353 -0.449642,2.029705 -0.02634,1.12618 0.369101,2.048864 0.883243,2.060894 0.128006,0.003 0.260856,-0.260052 0.380815,-0.369375 0.101825,0.08708 0.20581,0.341141 0.316573,0.343822 0.514143,0.01203 0.952303,-0.891151 0.978664,-2.017327 5.39e-4,-0.01707 8.57e-4,-0.0341 0.0012,-0.05115 z" />
      <ellipse
         style="fill:#ffff00;fill-opacity:1;fill-rule:evenodd;stroke:#070005;stroke-width:0.110642;stroke-miterlimit:4;stroke-dasharray:none;stroke-opacity:1;stop-color:#000000"
         id="path5916"
         cx="-56.085987"
         cy="-72.910316"
         rx="0.23087034"
         ry="0.32282093"
         transform="rotate(164.43093)" />
      <ellipse
         style="fill:#ffb03a;fill-opacity:1;fill-rule:evenodd;stroke:#070005;stroke-width:0.0729341;stroke-miterlimit:4;stroke-dasharray:none;stroke-opacity:1;stop-color:#000000"
         id="path5920"
         cx="-71.92363"
         cy="-57.282898"
         rx="0.17608401"
         ry="0.10573936"
         transform="rotate(178.29069)" />
      <ellipse
         style="fill:#000000;fill-opacity:1;fill-rule:evenodd;stroke:none;stroke-width:0.0754828;stroke-miterlimit:4;stroke-dasharray:none;stroke-opacity:1;stop-color:#000000"
         id="path5922"
         cx="-71.925949"
         cy="-57.283985"
         rx="0.08377637"
         ry="0.11902535"
         transform="rotate(178.29069)" />
      <ellipse
         style="fill:#ffff00;fill-opacity:1;fill-rule:evenodd;stroke:#070005;stroke-width:0.110642;stroke-miterlimit:4;stroke-dasharray:none;stroke-opacity:1;stop-color:#000000"
         id="ellipse5929"
         cx="-86.028526"
         cy="-28.713274"
         rx="0.23087034"
         ry="0.32282093"
         transform="rotate(-160.96566)" />
      <ellipse
         style="fill:#ffb03a;fill-opacity:1;fill-rule:evenodd;stroke:#070005;stroke-width:0.0729341;stroke-miterlimit:4;stroke-dasharray:none;stroke-opacity:1;stop-color:#000000"
         id="ellipse5931"
         cx="-70.287445"
         cy="-57.237507"
         rx="0.17608401"
         ry="0.10573936"
         transform="rotate(178.29069)" />
      <ellipse
         style="fill:#000000;fill-opacity:1;fill-rule:evenodd;stroke:none;stroke-width:0.0754828;stroke-miterlimit:4;stroke-dasharray:none;stroke-opacity:1;stop-color:#000000"
         id="ellipse5933"
         cx="-70.289764"
         cy="-57.238594"
         rx="0.08377637"
         ry="0.11902535"
         transform="rotate(178.29069)" />
      <path
         style="fill:none;stroke:#000094;stroke-width:0.1;stroke-linecap:butt;stroke-linejoin:miter;stroke-miterlimit:4;stroke-dasharray:0.1, 0.1;stroke-dashoffset:0;stroke-opacity:1"
         d="m 71.528921,56.353542 c -0.04271,0.09462 0.635907,1.065741 1.261853,1.05492 0.625947,-0.01082 1.182002,-0.966396 1.182002,-0.966396"
         id="path989"
         sodipodi:nodetypes="czc" />
      <path
         style="fill:none;stroke:#000094;stroke-width:0.1;stroke-linecap:butt;stroke-linejoin:miter;stroke-miterlimit:4;stroke-dasharray:0.1, 0.1;stroke-dashoffset:0;stroke-opacity:1"
         d="m 71.545259,55.654872 c -0.01958,0.345247 0.691074,0.403568 1.241475,-0.469415 0.532546,0.896085 1.171065,0.726465 1.20238,0.55794"
         id="path991"
         sodipodi:nodetypes="ccc" />
      <ellipse
         style="fill:#000000;fill-opacity:1;fill-rule:evenodd;stroke:none;stroke-width:0.153028;stroke-miterlimit:4;stroke-dasharray:0.153028, 0.153028;stroke-dashoffset:0;stop-color:#000000"
         id="path993"
         cx="72.535995"
         cy="54.050423"
         rx="0.11001275"
         ry="0.1300354" />
      <ellipse
         style="fill:#000000;fill-opacity:1;fill-rule:evenodd;stroke:none;stroke-width:0.153028;stroke-miterlimit:4;stroke-dasharray:0.153028, 0.153028;stroke-dashoffset:0;stop-color:#000000"
         id="ellipse995"
         cx="72.992325"
         cy="54.040203"
         rx="0.11001275"
         ry="0.1300354" />
    </g>
    <path
       d="m 35.249951,17.87506 c 0.513146,0.175298 1.36163,0.40669 1.862532,0.568997 6.374326,2.065468 11.141035,2.566362 15.140838,3.130744 4.249169,0.599568 7.332288,1.283474 8.792988,3.443489 2.92145,4.32003 -9.111791,18.232877 -6.017581,20.574277 3.0942,2.34143 9.32383,2.20592 11.1092,2.7741 1.78536,0.568178 1.45276,2.98471 1.45276,2.98471"
       style="display:inline;fill:none;stroke:#008080;stroke-width:0.1;stroke-linecap:butt;stroke-linejoin:miter;stroke-miterlimit:4;stroke-dasharray:none;stroke-opacity:1"
       id="path5930"
       sodipodi:nodetypes="cssccsc" />
  </g>
</svg>
